<?xml version="1.0" standalone="no"?>
<!DOCTYPE svg PUBLIC "-//W3C//DTD SVG 20010904//EN"
 "http://www.w3.org/TR/2001/REC-SVG-20010904/DTD/svg10.dtd">
<svg version="1.0" xmlns="http://www.w3.org/2000/svg"
 width="260.000000pt" height="260.000000pt" viewBox="0 0 260.000000 260.000000"
 preserveAspectRatio="xMidYMid meet">
<metadata>
Created by potrace 1.11, written by Peter Selinger 2001-2013
</metadata>
<g transform="translate(0.000000,260.000000) scale(0.100000,-0.100000)"
fill="#000000" stroke="none">
<path d="M1240 2045 c0 -14 -4 -25 -10 -25 -5 0 -10 -16 -10 -35 0 -19 -4 -35
-10 -35 -5 0 -10 -9 -10 -20 0 -11 -7 -20 -15 -20 -10 0 -15 -11 -15 -35 0
-19 -4 -35 -10 -35 -5 0 -10 -16 -10 -35 0 -19 -4 -35 -10 -35 -5 0 -10 -11
-10 -25 0 -16 -6 -25 -15 -25 -10 0 -15 -11 -15 -35 0 -19 -4 -35 -10 -35 -5
0 -10 -16 -10 -35 0 -19 -4 -35 -10 -35 -5 0 -10 -9 -10 -20 0 -11 -7 -20 -15
-20 -10 0 -15 -11 -15 -35 0 -19 -4 -35 -10 -35 -5 0 -10 -16 -10 -35 0 -19
-4 -35 -10 -35 -5 0 -10 -11 -10 -25 0 -14 -4 -25 -10 -25 -5 0 -10 -16 -10
-35 l0 -35 160 0 160 0 0 -65 c0 -37 -4 -65 -10 -65 -5 0 -10 -11 -10 -25 0
-16 -6 -25 -15 -25 -9 0 -15 -9 -15 -25 l0 -25 140 0 140 0 0 25 c0 14 -4 25
-10 25 -5 0 -10 20 -10 45 0 33 -4 45 -15 45 -11 0 -15 12 -15 45 l0 45 50 0
c47 0 50 2 50 25 0 14 5 25 10 25 6 0 10 20 10 45 0 25 5 45 10 45 6 0 10 11
10 25 0 14 -4 25 -10 25 -5 0 -10 -5 -10 -11 0 -23 -30 -39 -74 -39 -25 0 -46
5 -46 10 0 6 7 10 15 10 13 0 15 42 15 315 l0 315 -130 0 -130 0 0 -25z m50
-415 l0 -210 -80 0 c-79 0 -80 0 -80 25 0 14 5 25 10 25 6 0 10 16 10 35 0 19
5 35 10 35 6 0 10 16 10 35 0 24 5 35 15 35 10 0 15 11 15 35 0 19 5 35 10 35
6 0 10 9 10 20 0 11 5 20 10 20 6 0 10 16 10 35 0 24 5 35 15 35 9 0 15 9 15
25 0 14 5 25 10 25 6 0 10 -77 10 -210z"/>
<path d="M110 1320 l0 -240 70 0 70 0 0 80 c0 47 4 80 10 80 6 0 10 -7 10 -15
0 -8 5 -15 11 -15 6 0 24 -13 39 -30 15 -16 33 -30 39 -30 6 0 11 -5 11 -10 0
-6 11 -22 25 -35 22 -23 32 -25 115 -25 83 0 90 1 90 20 0 11 5 20 10 20 6 0
10 7 10 15 0 8 5 15 10 15 6 0 10 -7 10 -15 0 -8 7 -15 15 -15 8 0 15 -4 15
-10 0 -5 15 -10 34 -10 19 0 37 -6 40 -12 5 -10 7 -10 12 0 3 6 23 12 46 12
38 0 68 17 68 39 0 6 5 11 11 11 16 0 39 26 39 44 0 9 5 16 10 16 6 0 10 11
10 25 0 14 -4 25 -10 25 -5 0 -10 25 -10 56 0 54 -14 84 -39 84 -6 0 -11 5
-11 10 0 6 -9 10 -20 10 -11 0 -20 5 -20 10 0 6 -33 10 -80 10 -47 0 -80 -4
-80 -10 0 -5 -5 -10 -10 -10 -19 0 -60 -48 -60 -70 0 -11 -7 -20 -15 -20 -9 0
-15 -9 -15 -25 0 -16 6 -25 15 -25 10 0 15 -11 15 -35 0 -24 -5 -35 -15 -35
-10 0 -15 11 -15 35 0 19 -4 35 -10 35 -5 0 -10 5 -10 11 0 11 -25 39 -35 39
-8 0 -35 27 -35 35 0 8 -47 55 -55 55 -8 0 -35 27 -35 35 0 8 -27 35 -35 35
-8 0 -35 27 -35 35 0 4 -6 13 -14 21 -11 10 -40 14 -105 14 l-91 0 0 -240z
m690 70 c0 -5 -4 -10 -10 -10 -5 0 -10 5 -10 10 0 6 5 10 10 10 6 0 10 -4 10
-10z m-180 -210 c0 -5 -4 -10 -10 -10 -5 0 -10 5 -10 10 0 6 5 10 10 10 6 0
10 -4 10 -10z"/>
<path d="M440 1550 c0 -5 9 -10 20 -10 11 0 20 -5 20 -11 0 -11 25 -39 35 -39
10 0 35 -28 35 -39 0 -6 5 -11 10 -11 6 0 10 -9 10 -20 0 -15 7 -20 25 -20 14
0 25 5 25 10 0 6 -4 10 -10 10 -6 0 -10 27 -10 60 0 33 4 60 10 60 6 0 10 5
10 10 0 6 -37 10 -90 10 -53 0 -90 -4 -90 -10z"/>
<path d="M990 1135 c0 -8 5 -15 10 -15 6 0 10 -72 10 -195 l0 -195 25 0 c14 0
25 -4 25 -10 0 -5 20 -10 45 -10 25 0 45 5 45 10 0 6 9 10 21 10 29 0 49 24
49 59 0 17 5 31 10 31 6 0 10 30 10 70 0 40 -4 70 -10 70 -5 0 -10 11 -10 25
0 20 -5 25 -25 25 -14 0 -25 5 -25 10 0 6 -9 10 -20 10 -11 0 -20 -4 -20 -10
0 -5 -7 -10 -15 -10 -8 0 -15 -7 -15 -15 0 -8 -4 -15 -10 -15 -5 0 -10 11 -10
25 0 14 5 25 10 25 6 0 10 27 10 60 l0 60 -55 0 c-42 0 -55 -3 -55 -15z m146
-189 c19 -20 19 -132 0 -152 -30 -29 -36 -15 -36 76 0 91 6 105 36 76z"/>
<path d="M1730 1125 c0 -16 -6 -25 -15 -25 -12 0 -15 -13 -15 -60 0 -53 -2
-60 -20 -60 -15 0 -20 7 -20 25 0 23 -4 25 -45 25 -25 0 -45 -4 -45 -10 0 -5
-7 -10 -15 -10 -8 0 -15 5 -15 10 0 6 -4 10 -10 10 -6 0 -10 -53 -10 -140 0
-87 -4 -140 -10 -140 -5 0 -10 -4 -10 -10 0 -5 25 -10 55 -10 l55 0 0 105 0
105 25 0 c14 0 25 5 25 10 0 6 9 10 20 10 19 0 20 -7 20 -105 0 -63 -4 -105
-10 -105 -5 0 -10 -4 -10 -10 0 -6 27 -10 60 -10 33 0 60 4 60 10 0 6 -7 10
-15 10 -12 0 -15 17 -15 95 0 78 3 95 15 95 8 0 15 5 15 10 0 6 9 10 20 10 16
0 20 7 20 35 0 33 -2 35 -35 35 -31 0 -35 3 -35 25 0 22 4 25 35 25 33 0 35 2
35 35 l0 35 -55 0 c-52 0 -55 -1 -55 -25z"/>
<path d="M110 1005 c0 -16 6 -25 15 -25 12 0 15 -18 15 -100 0 -82 -3 -100
-15 -100 -9 0 -15 -9 -15 -25 0 -23 3 -25 50 -25 l50 0 0 115 c0 108 1 115 20
115 19 0 20 -7 20 -115 l0 -115 45 0 45 0 0 115 c0 70 -4 115 -10 115 -5 0
-10 9 -10 21 0 11 -6 27 -14 35 -18 17 -72 19 -80 2 -5 -10 -7 -10 -12 0 -3 6
-16 12 -29 12 -13 0 -26 -6 -29 -12 -5 -10 -7 -10 -12 0 -10 22 -34 13 -34
-13z"/>
<path d="M370 1005 c0 -14 5 -25 10 -25 6 0 10 -48 10 -125 l0 -125 25 0 c14
0 25 -4 25 -10 0 -5 9 -10 20 -10 11 0 20 5 20 10 0 6 27 10 60 10 l60 0 0
150 0 150 -24 0 c-13 0 -27 -6 -30 -12 -5 -10 -7 -10 -12 0 -3 6 -12 12 -20
12 -11 0 -14 -22 -14 -115 0 -108 -1 -115 -20 -115 -19 0 -20 7 -20 115 0 70
-4 115 -10 115 -5 0 -10 -4 -10 -10 0 -5 -7 -10 -15 -10 -8 0 -15 5 -15 10 0
6 -9 10 -20 10 -15 0 -20 -7 -20 -25z"/>
<path d="M633 1015 c-16 -17 -17 -35 -3 -35 6 0 10 -45 10 -115 0 -70 -4 -115
-10 -115 -5 0 -10 -4 -10 -10 0 -6 27 -10 60 -10 33 0 60 4 60 10 0 6 -7 10
-15 10 -12 0 -15 17 -15 95 0 78 3 95 15 95 8 0 15 5 15 10 0 6 5 10 10 10 6
0 10 -45 10 -115 l0 -115 45 0 45 0 0 115 c0 70 4 115 10 115 6 0 10 -4 10
-10 0 -5 7 -10 15 -10 12 0 15 -17 15 -95 0 -78 -3 -95 -15 -95 -8 0 -15 -4
-15 -10 0 -5 23 -10 50 -10 l50 0 0 125 c0 104 -2 125 -15 125 -8 0 -15 5 -15
11 0 20 -29 39 -59 39 -17 0 -31 -4 -31 -10 0 -5 -11 -10 -25 -10 -14 0 -25 5
-25 10 0 6 -13 10 -30 10 -16 0 -30 -4 -30 -10 0 -14 -27 -12 -33 3 -4 9 -8 8
-17 -3 -9 -11 -13 -12 -17 -2 -6 16 -25 15 -40 -3z"/>
<path d="M1323 1015 c-7 -8 -13 -19 -13 -25 0 -5 -4 -10 -10 -10 -5 0 -10 -9
-10 -20 0 -11 -4 -20 -10 -20 -6 0 -10 -30 -10 -70 0 -40 4 -70 10 -70 6 0 10
-9 10 -21 0 -26 23 -49 49 -49 12 0 21 -4 21 -10 0 -5 16 -10 35 -10 19 0 35
5 35 10 0 6 9 10 20 10 15 0 20 7 20 25 0 16 6 25 15 25 8 0 15 5 15 10 0 6
-11 10 -25 10 -14 0 -25 -4 -25 -10 0 -15 -60 -12 -76 4 -8 8 -14 28 -14 45 0
31 0 31 55 31 30 0 55 5 55 10 0 6 7 10 15 10 8 0 15 5 15 10 0 6 -7 10 -15
10 -10 0 -15 11 -15 35 0 19 -4 35 -10 35 -5 0 -10 5 -10 11 0 36 -100 55
-127 24z m77 -80 c0 -18 -5 -25 -20 -25 -15 0 -20 7 -20 25 0 18 5 25 20 25
15 0 20 -7 20 -25z"/>
<path d="M1903 1015 c-7 -8 -13 -19 -13 -25 0 -5 -5 -10 -11 -10 -29 0 -39
-30 -39 -114 0 -51 4 -86 10 -86 6 0 10 -7 10 -15 0 -8 7 -15 15 -15 8 0 15
-4 15 -10 0 -5 9 -10 20 -10 11 0 20 -4 20 -10 0 -5 11 -10 25 -10 14 0 25 5
25 10 0 6 9 10 21 10 26 0 49 23 49 49 0 12 5 21 10 21 6 0 10 33 10 78 0 66
-3 80 -20 92 -11 8 -20 20 -20 27 0 7 -7 13 -15 13 -8 0 -15 5 -15 10 0 15
-83 11 -97 -5z m77 -90 c0 -19 5 -35 10 -35 6 0 10 -16 10 -35 0 -19 -4 -35
-10 -35 -5 0 -10 -9 -10 -20 0 -15 -7 -20 -25 -20 -18 0 -25 5 -25 20 0 11 -4
20 -10 20 -14 0 -12 108 3 125 6 8 22 14 35 15 19 0 22 -5 22 -35z"/>
<path d="M2100 1005 c0 -14 5 -25 10 -25 6 0 10 -48 10 -125 0 -118 1 -125 20
-125 11 0 20 -4 20 -10 0 -5 11 -10 25 -10 14 0 25 5 25 10 0 6 27 10 60 10
l60 0 0 150 0 150 -24 0 c-13 0 -27 -6 -30 -12 -5 -10 -7 -10 -12 0 -3 6 -12
12 -20 12 -11 0 -14 -22 -14 -115 0 -108 -1 -115 -20 -115 -19 0 -20 7 -20
115 0 96 -3 115 -15 115 -8 0 -15 -4 -15 -10 0 -5 -9 -10 -20 -10 -11 0 -20 5
-20 10 0 6 -4 10 -10 10 -5 0 -10 -11 -10 -25z"/>
<path d="M2350 1005 c0 -14 5 -25 10 -25 6 0 10 -45 10 -115 0 -70 -4 -115
-10 -115 -5 0 -10 -4 -10 -10 0 -5 25 -10 55 -10 30 0 55 5 55 10 0 6 -4 10
-10 10 -6 0 -10 33 -10 80 0 47 4 80 10 80 6 0 10 7 10 15 0 9 9 15 25 15 23
0 25 4 25 45 l0 45 -45 0 c-25 0 -45 -4 -45 -10 0 -5 -7 -10 -15 -10 -8 0 -15
5 -15 10 0 6 -9 10 -20 10 -15 0 -20 -7 -20 -25z"/>
<path d="M340 660 c0 -16 -7 -20 -34 -20 -19 0 -36 5 -38 12 -5 14 -58 -34
-58 -52 0 -5 -7 -10 -15 -10 -10 0 -15 11 -15 35 0 28 -4 35 -20 35 -11 0 -20
-4 -20 -10 0 -5 -7 -10 -15 -10 -9 0 -15 -9 -15 -25 0 -16 6 -25 15 -25 8 0
15 -4 15 -10 0 -5 -7 -10 -15 -10 -8 0 -15 -4 -15 -10 0 -5 16 -10 35 -10 19
0 35 5 35 10 0 6 11 10 25 10 14 0 25 -4 25 -10 0 -15 60 -12 76 4 8 8 14 24
14 35 0 12 5 21 10 21 6 0 10 -16 10 -35 0 -31 3 -35 25 -35 14 0 25 5 25 10
0 6 -4 10 -10 10 -5 0 -10 11 -10 25 0 18 5 25 20 25 16 0 20 -7 20 -35 0 -31
3 -35 25 -35 18 0 25 5 25 20 0 11 -4 20 -10 20 -5 0 -10 7 -10 15 0 8 9 15
20 15 14 0 20 -7 20 -21 0 -22 22 -49 39 -49 6 0 11 5 11 10 0 6 9 10 20 10
11 0 20 -4 20 -10 0 -5 7 -10 15 -10 8 0 15 9 15 20 0 11 5 20 10 20 6 0 10
11 10 25 0 14 -4 25 -10 25 -5 0 -10 -4 -10 -10 0 -5 -7 -10 -15 -10 -8 0 -15
5 -15 10 0 6 -15 10 -34 10 -19 0 -37 6 -39 13 -4 9 -8 8 -16 -3 -8 -12 -13
-11 -29 8 -24 27 -42 28 -42 2 0 -11 -4 -20 -10 -20 -5 0 -10 9 -10 20 0 15
-7 20 -25 20 -18 0 -25 -5 -25 -20z m-70 -65 c0 -14 -4 -25 -10 -25 -5 0 -10
11 -10 25 0 14 5 25 10 25 6 0 10 -11 10 -25z"/>
<path d="M1400 670 c0 -5 -9 -10 -20 -10 -11 0 -20 -4 -20 -10 0 -5 -6 -10
-14 -10 -8 0 -16 -6 -19 -12 -3 -9 -11 -6 -24 10 -20 22 -63 31 -63 12 0 -5
-9 -10 -20 -10 -11 0 -20 5 -20 10 0 6 -5 10 -11 10 -20 0 -39 -29 -39 -59 0
-17 -4 -31 -10 -31 -5 0 -10 -4 -10 -10 0 -5 9 -10 20 -10 16 0 20 7 20 35 0
31 3 35 25 35 22 0 25 -4 25 -35 0 -35 0 -35 45 -35 25 0 45 5 45 10 0 6 11
10 25 10 14 0 25 -4 25 -10 0 -5 20 -10 45 -10 l45 0 0 65 c0 63 -1 65 -25 65
-14 0 -25 -4 -25 -10z m-110 -75 c0 -14 -4 -25 -10 -25 -5 0 -10 5 -10 10 0 6
-7 10 -15 10 -8 0 -15 7 -15 15 0 9 9 15 25 15 20 0 25 -5 25 -25z m110 0 c0
-14 -4 -25 -10 -25 -5 0 -10 11 -10 25 0 14 5 25 10 25 6 0 10 -11 10 -25z"/>
<path d="M1700 661 c0 -11 -6 -22 -12 -25 -10 -5 -10 -7 0 -12 27 -13 -1 -54
-37 -54 -16 0 -21 6 -21 25 0 16 6 25 15 25 8 0 15 9 15 20 0 11 -7 20 -15 20
-8 0 -15 -4 -15 -10 0 -5 -9 -10 -20 -10 -16 0 -20 -7 -20 -31 0 -17 6 -37 14
-45 18 -17 72 -19 80 -1 5 10 7 10 12 0 3 -8 25 -13 55 -13 l49 0 0 65 c0 51
-3 65 -15 65 -8 0 -15 -4 -15 -10 0 -5 -9 -10 -20 -10 -11 0 -20 5 -20 10 0 6
-7 10 -15 10 -8 0 -15 -9 -15 -19z m70 -66 c0 -18 -5 -25 -20 -25 -15 0 -20 7
-20 25 0 18 5 25 20 25 15 0 20 -7 20 -25z"/>
<path d="M670 640 c0 -11 -7 -20 -15 -20 -10 0 -15 -11 -15 -35 l0 -35 80 0
80 0 0 35 c0 24 5 35 15 35 9 0 15 -9 15 -21 0 -11 6 -27 14 -35 16 -16 96
-19 96 -4 0 6 -16 10 -35 10 -19 0 -35 5 -35 10 0 6 16 10 35 10 31 0 35 3 35
25 0 18 -5 25 -20 25 -11 0 -20 5 -20 10 0 6 -7 10 -15 10 -8 0 -15 -4 -15
-10 0 -5 -9 -10 -20 -10 -11 0 -20 5 -20 10 0 15 -39 12 -56 -4 -8 -8 -14 -28
-14 -45 0 -17 -4 -31 -10 -31 -5 0 -10 16 -10 35 0 24 -5 35 -15 35 -8 0 -15
5 -15 10 0 6 -9 10 -20 10 -13 0 -20 -7 -20 -20z"/>
<path d="M1023 645 c-8 -8 -13 -41 -13 -80 0 -63 1 -65 25 -65 20 0 25 5 25
25 0 18 5 25 20 25 11 0 20 5 20 10 0 6 7 10 15 10 10 0 15 11 15 35 0 24 -5
35 -15 35 -8 0 -15 5 -15 10 0 15 -63 11 -77 -5z m57 -50 c0 -14 -4 -25 -10
-25 -5 0 -10 11 -10 25 0 14 5 25 10 25 6 0 10 -11 10 -25z"/>
<path d="M1540 625 c0 -28 -4 -35 -20 -35 -15 0 -20 7 -20 25 0 16 -6 25 -15
25 -11 0 -15 -12 -15 -45 l0 -45 50 0 50 0 0 55 c0 42 -3 55 -15 55 -10 0 -15
-11 -15 -35z"/>
<path d="M1860 650 c0 -5 -9 -10 -20 -10 -16 0 -20 -7 -20 -31 0 -17 6 -37 14
-45 21 -21 69 -18 86 6 8 11 20 20 27 20 7 0 13 -9 13 -20 0 -11 5 -20 10 -20
6 0 10 16 10 35 0 19 5 35 10 35 6 0 10 -16 10 -35 0 -31 3 -35 25 -35 23 0
25 4 25 41 0 48 -18 69 -59 69 -24 0 -31 -4 -31 -20 0 -14 -7 -20 -23 -20 -12
0 -29 9 -37 20 -15 21 -40 27 -40 10z m30 -55 c0 -16 -6 -25 -15 -25 -9 0 -15
9 -15 25 0 16 6 25 15 25 9 0 15 -9 15 -25z"/>
</g>
</svg>
